# xmcd CD database file
#
# Track frame offsets:
#	150
#	20025
#	42375
#
# Disc length: 812 seconds
#
# Revision: 0
# Processed by: cddbd v1.5PL3 Copyright (c) Steve Scherf et al.
# Submitted via: CDex 1.51
#
DISCID=21032a03
DTITLE=a.mia - luvmirage,
DYEAR=2002
DGENRE=JPop
TTITLE0=luvmirage,
TTITLE1=影と闇とこの空へ
TTITLE2=luvmirage, (Quiet Money Radio Mix)
EXTD=YEAR: 2002
EXTT0=
EXTT1=
EXTT2=
PLAYORDER=
